<svg xmlns="http://www.w3.org/2000/svg" xmlns:xlink="http://www.w3.org/1999/xlink" width="235" height="225" viewBox="0 0 235 225">
  <defs>
    <clipPath id="clip-iPhone_X_XS_1">
      <rect width="235" height="225"/>
    </clipPath>
  </defs>
  <g id="iPhone_X_XS_1" data-name="iPhone X/XS – 1" clip-path="url(#clip-iPhone_X_XS_1)">
    <rect width="235" height="225" fill="rgba(255,255,255,0)"/>
    <g id="Group_11" data-name="Group 11" transform="matrix(0.995, 0.105, -0.105, 0.995, -123.692, -413.417)">
      <path id="Path_27" data-name="Path 27" d="M11.945,259.506,25.3,226.032s6.218-14.57,10.462-48.235-.945-58.692-.945-58.692,6.409,37.688,11.947,35.985S52.109,136.479,51.3,116.2c-.424-10.7-2.136-47.152-2.136-47.152s2.782,42.186,10.6,29.478S80.428,18.213,80.428,18.213L78.019,77.757,121.357,0,111.082,38.312l-5.9,27.6L179.321,6.376,132.906,65.5s-29.714,29.68-28.517,36.472S137.7,92.666,137.7,92.666,111.352,115.529,97.827,133,83.6,162.541,83.6,162.541l24.79-9.793s-22.048,21.9-43.915,38.337a128.092,128.092,0,0,0-33.178,37.826Z" transform="matrix(0.985, 0.174, -0.174, 0.985, 225.204, 359.681)" fill="#fff"/>
    </g>
  </g>
</svg>
